PathFileType	4	(X/Y/Z)	C:/Users/beibeiliu/ov580/test_trc\sequence.17_training_dense_left.trc
DataRate	CameraRate	NumFrames	NumMarkers	Units	OrigDataRate	OrigDataStartFrame	OrigNumFrames
120	120	12	19	mm	120	114	303
Frame#	Time	ThumbCMC			ThumbMCP			ThumbIP			ThumbTip			IndexMCP			IndexPIP			IndexTip			MiddleMCP			MiddlePIP			MiddleTip			RingMCP			RingPIP			RingTip			PinkyMCP			PinkyPIP			PinkyTip			BackHand1			BackHand2			BackHand3	
		X0	Y0	Z0	X1	Y1	Z1	X2	Y2	Z2	X3	Y3	Z3	X4	Y4	Z4	X5	Y5	Z5	X6	Y6	Z6	X7	Y7	Z7	X8	Y8	Z8	X9	Y9	Z9	X10	Y10	Z10	X11	Y11	Z11	X12	Y12	Z12	X13	Y13	Z13	X14	Y14	Z14	X15	Y15	Z15	X16	Y16	Z16	X17	Y17	Z17	X18	Y18	Z18	
113	0.941667	-248.612	47.2783	31.7387	-244.139	57.7473	11.9089	-248.663	75.6699	-1.12045	-251.11	92.5476	-6.25898	-294.351	44.388	-13.6664	-304.849	48.4752	-37.0324	-313.691	52.5457	-56.7609	-274.062	27.859	-34.3353	-251.217	39.9622	-41.5716	-237.494	34.8104	-8.16313	-262.305	16.3358	-33.2281	-240.189	26.7691	-30.3481	-233.855	24.0378	-0.376972	-255.335	-2.10154	-27.2785	-234.006	13.6015	-25.0267	-234.772	15.7652	2.30941	-273.303	0.425198	15.4994	-257.87	-7.89371	39.7837	-269.417	21.0427	36.8249	
114	0.95	-244.942	42.0835	34.688	-245.339	56.5545	7.23917	-249.129	72.8377	-5.44344	-248.333	86.1158	-11.604	-297.821	45.8384	-9.15278	-307.458	50.1333	-30.9953	-316.158	50.035	-48.258	-281.227	30.8202	-26.823	-252.741	34.9946	-38.6987	-238.559	35.7736	-14.6525	-267.626	12.2889	-31.9487	-245.87	22.2392	-31.24	-236.389	23.484	-4.3947	-264.215	-3.38182	-22.4824	-243.729	11.5754	-26.4611	-237.041	13.885	-0.794655	-272.604	-2.3593	21.1436	-261.048	-7.57708	39.8619	-270.272	18.8697	39.6971	
115	0.958333	-246.277	40.6081	31.9712	-242.644	51.117	9.07065	-246.624	71.0938	-7.09005	-247.152	83.725	-13.9833	-298.939	46.7383	-4.99299	-311.322	50.8876	-27.0129	-320.217	54.3386	-42.1365	-285.008	26.4274	-25.7303	-257.219	29.785	-38.2438	-242.079	31.9837	-14.9941	-276.043	12.3012	-24.1914	-247.336	20.9242	-28.2633	-241.199	20.9932	-3.27346	-268.473	-4.95881	-23.6666	-246.967	5.20224	-25.3882	-243.223	13.9405	0.644216	-277.508	-1.91075	22.6159	-262.751	-4.83515	44.9858	-270.435	24.8655	40.8916	
116	0.966667	-244.094	40.0914	32.9744	-245.459	52.8028	4.09663	-245.591	66.4728	-8.3229	-249.159	80.6034	-20.1192	-299.583	45.3206	-3.924	-311.477	47.6955	-21.8366	-324.838	53.2668	-40.4813	-289.679	25.2093	-21.6797	-263.619	30.7196	-39.0538	-245.126	25.778	-13.4598	-280.281	8.66999	-22.6688	-253.149	17.8637	-28.493	-242.26	16.0832	-3.97521	-273.867	-4.59701	-20.2237	-252.091	1.83656	-25.4073	-242.861	9.31679	-0.280233	-281.912	1.90726	27.3866	-265.31	-7.41953	47.4303	-270.384	24.0141	44.6905	
117	0.975	-243.396	40.4622	30.6426	-243.805	53.4282	2.69623	-246.884	63.2367	-10.8135	-248.244	76.4031	-21.8682	-303.841	45.1094	-4.24546	-315.66	51.0888	-21.693	-329.578	53.0803	-38.4341	-293.161	25.0506	-19.8284	-269.799	24.4881	-38.3377	-248.663	21.8534	-15.2105	-283.564	11.2832	-21.0715	-260.59	15.266	-29.3953	-246.44	14.0617	-2.62754	-279.417	-9.55939	-16.1644	-256.277	0.0932156	-22.6318	-247.191	9.06374	1.69841	-284.882	1.87376	27.1844	-262.215	-2.46525	50.1298	-272.52	21.9734	42.2039	
118	0.983333	-246.407	37.3414	27.9395	-246.218	49.9519	0.114503	-250.401	60.3572	-15.2274	-244.587	76.4692	-24.2748	-304.765	49.3621	-1.64012	-318.635	53.0567	-19.6708	-331.738	54.1765	-34.0553	-295.244	28.2162	-18.3458	-273.339	27.2934	-37.8794	-251.264	22.1326	-13.1337	-286.597	7.56047	-23.1641	-262.359	10.0191	-28.6245	-248.565	11.5761	-0.141759	-284.329	-8.71766	-14.5791	-262.004	-2.41978	-22.9455	-251.49	8.30156	1.27097	-286.607	0.469195	31.2296	-265.866	-4.26889	50.9209	-269.129	25.9361	44.4323	
119	0.991667	-247.517	36.6554	26.4434	-245.734	49.2856	-0.54052	-249.088	61.1925	-17.4665	-246.679	73.3013	-28.8797	-302.963	50.9509	0.811169	-317.902	54.1497	-15.939	-335.05	56.6352	-32.2812	-298.68	26.6397	-19.5668	-272.771	23.5319	-37.0382	-252.631	21.2256	-10.5913	-291.571	8.99025	-20.821	-265.071	12.1728	-27.0278	-251.825	9.84789	-2.69552	-288.172	-6.93382	-13.8677	-264.924	-2.96364	-20.251	-257.028	7.44398	3.7051	-291.81	3.487	31.017	-270.371	-3.83087	50.1683	-271.986	23.7893	45.5591	
120	1	-244.778	38.0689	26.5361	-246.202	41.7971	0.0711792	-249.051	54.9359	-19.2348	-245.715	66.0355	-29.0036	-307.381	50.522	-0.751106	-319.035	53.1269	-15.2716	-335.081	59.4229	-29.2586	-300.923	26.4358	-15.4311	-277.294	23.336	-36.5486	-257.355	18.5618	-14.6316	-295.746	11.1211	-15.1172	-271.002	9.71216	-27.3911	-254.716	8.11175	-0.149134	-290.85	-4.44102	-13.5712	-267.704	0.345244	-18.2085	-257.994	4.81333	0.924459	-290.246	3.11262	34.4456	-270.512	-2.98236	51.1421	-273.437	30.0092	42.4107	
121	1.00833	-244.538	37.9529	23.5555	-244.168	39.888	-1.6266	-247.075	53.6283	-20.0568	-244.452	68.368	-34.1403	-306.934	49.9681	-1.16672	-320.147	54.1972	-15.4135	-339.14	58.2199	-31.807	-301.694	27.6081	-19.9908	-282.139	24.8429	-37.5635	-259.063	15.5722	-15.447	-297.609	6.92054	-15.9361	-272.109	4.20301	-26.1231	-257.736	5.89089	-1.66281	-296.481	-7.81837	-10.0154	-272.438	-5.13105	-19.0349	-261.694	1.65126	3.25002	-292.734	7.84871	32.192	-270.742	-1.96844	52.6394	-272.643	28.9887	44.2144	
122	1.01667	-245.685	32.7885	24.3474	-246.873	40.1267	-3.90691	-245.65	54.656	-23.8596	-243.829	65.3856	-35.7247	-307.886	53.5842	-2.6945	-318.838	57.2706	-15.7593	-333.779	64.1437	-29.6755	-303.803	28.8932	-18.5559	-282.411	22.5404	-37.3932	-259.176	19.4451	-14.0655	-299.175	8.07411	-18.0175	-273.121	3.89838	-25.7119	-260.216	4.78324	-2.44324	-297.823	-7.21838	-13.516	-276.157	-4.4014	-18.1544	-267.528	5.50425	4.67697	-296.503	7.99634	31.9826	-274.177	1.05074	53.9955	-271.547	31.2658	42.2685	
123	1.025	-245.739	37.1737	20.3927	-246.817	41.6182	-7.23781	-248.014	51.4415	-25.2135	-240.687	60.7823	-36.8759	-304.029	57.7121	-2.75501	-322.156	60.431	-18.5838	-337.167	68.0688	-34.0618	-303.795	31.9421	-19.0599	-284.511	18.8891	-36.9263	-261.058	18.063	-15.6359	-301.756	13.3884	-14.2966	-276.158	4.55065	-25.0983	-262.502	7.21275	0.0142757	-302.551	-3.65481	-7.90037	-278.777	-2.06149	-16.6231	-267.363	1.76812	4.74493	-294.736	9.20704	34.9984	-275.913	6.08917	51.517	-273	29.056	43.3916	
124	1.03333	-246.721	34.1335	19.999	-247.618	36.3079	-6.90671	-244.778	49.9925	-26.902	-240.856	56.7497	-38.8264	-303.807	55.8326	-3.03518	-318.862	59.7794	-17.6227	-334.898	67.883	-32.5454	-303.621	34.618	-18.1858	-284.766	18.3489	-37.0817	-262.3	15.7103	-15.6275	-304.009	12.2826	-14.553	-280.194	6.19336	-26.6671	-264.303	9.2422	0.362384	-304.976	-4.79765	-7.36077	-280.365	-2.97884	-15.2654	-270.339	3.81098	7.59963	-296.644	16.079	33.2141	-276.738	4.46405	54.1884	-271.197	30.0593	41.2316	
